<svg preserveAspectRatio="xMidYMid meet" data-bbox="0 0 46.573 46" xmlns="http://www.w3.org/2000/svg" viewBox="0 0 46.573 46" height="46" width="47" data-type="color" role="img" aria-label="Homepage"><defs><style>#comp-kz2hdqh3 svg [data-color="1"] {fill: #0526C5;}</style></defs>
    <g>
        <path fill="#0526C5" d="M26.826 8.12c0 6.366-5.696 14.931-5.696 14.931s-5.698-8.565-5.698-14.93C15.432 1.753 17.983 0 21.13 0c3.146 0 5.697 1.755 5.697 8.12z" data-color="1"></path>
        <path fill="#0526C5" d="M10.571 11.055c5.634 2.964 10.56 11.99 10.56 11.99s-10.238 1.051-15.867-1.912C-.366 18.169-.733 15.099.732 12.32c1.466-2.779 4.206-4.23 9.84-1.265z" data-color="1"></path>
        <path fill="#0526C5" d="M5.599 26.808c5.247-3.603 15.533-3.757 15.533-3.757s-3.835 9.545-9.082 13.15c-5.247 3.605-8.138 2.495-9.92-.1C.348 33.507.352 30.413 5.6 26.808z" data-color="1"></path>
        <path fill="#0526C5" d="M17.22 38.546c-.745-6.322 3.906-15.491 3.906-15.491s6.66 7.84 7.409 14.162c.749 6.321-1.583 8.362-4.708 8.73-3.125.368-5.861-1.08-6.608-7.4z" data-color="1"></path>
        <path fill="#0526C5" d="M33.021 33.728c-5.94-2.29-11.89-10.677-11.89-10.677s10.038-2.244 15.98.046 6.664 5.295 5.534 8.232c-1.13 2.936-3.682 4.684-9.624 2.399z" data-color="1"></path>
        <path fill="#0526C5" d="M42.238 14.547c-5.127 3.772-15.402 4.258-15.402 4.258s3.523-9.665 8.65-13.437c5.126-3.772 8.052-2.757 9.917-.222 1.864 2.535 1.962 5.628-3.165 9.401z" data-color="1"></path>
    </g>
</svg>